<?xml version="1.0" encoding="UTF-8" standalone="no"?>
<svg
   xmlns:dc="http://purl.org/dc/elements/1.1/"
   xmlns:cc="http://creativecommons.org/ns#"
   xmlns:rdf="http://www.w3.org/1999/02/22-rdf-syntax-ns#"
   xmlns:svg="http://www.w3.org/2000/svg"
   xmlns="http://www.w3.org/2000/svg"
   xmlns:xlink="http://www.w3.org/1999/xlink"
   xmlns:sodipodi="http://sodipodi.sourceforge.net/DTD/sodipodi-0.dtd"
   xmlns:inkscape="http://www.inkscape.org/namespaces/inkscape"
   version="1.1"
   viewBox="0 0 680.89191 253.25182"
   stroke-miterlimit="10"
   id="svg113"
   sodipodi:docname="sneg1.svg"
   width="680.89191"
   height="253.25182"
   style="fill:none;stroke:none;stroke-linecap:square;stroke-miterlimit:10"
   inkscape:version="0.92.4 (5da689c313, 2019-01-14)">
  <metadata
     id="metadata119">
    <rdf:RDF>
      <cc:Work
         rdf:about="">
        <dc:format>image/svg+xml</dc:format>
        <dc:type
           rdf:resource="http://purl.org/dc/dcmitype/StillImage" />
        <dc:title></dc:title>
      </cc:Work>
    </rdf:RDF>
  </metadata>
  <defs
     id="defs117" />
  <sodipodi:namedview
     pagecolor="#ffffff"
     bordercolor="#666666"
     borderopacity="1"
     objecttolerance="10"
     gridtolerance="10"
     guidetolerance="10"
     inkscape:pageopacity="0"
     inkscape:pageshadow="2"
     inkscape:window-width="1455"
     inkscape:window-height="955"
     id="namedview115"
     showgrid="false"
     fit-margin-top="0"
     fit-margin-left="0"
     fit-margin-right="0"
     fit-margin-bottom="0"
     inkscape:zoom="0.90028971"
     inkscape:cx="407.80316"
     inkscape:cy="95.611694"
     inkscape:window-x="2754"
     inkscape:window-y="982"
     inkscape:window-maximized="0"
     inkscape:current-layer="svg113" />
  <clipPath
     id="g6bbcc2901a_0_44.0">
    <path
       d="M 0,0 H 960 V 540 H 0 Z"
       id="path2"
       inkscape:connector-curvature="0"
       style="clip-rule:nonzero" />
  </clipPath>
  <g
     clip-path="url(#g6bbcc2901a_0_44.0)"
     id="g111"
     transform="translate(-78.863503,-112.35988)">
    <path
       d="M 0,0 H 960 V 540 H 0 Z"
       id="path5"
       inkscape:connector-curvature="0"
       style="fill:#ffffff;fill-rule:evenodd" />
    <path
       d="m 321.93964,201.39755 v 0 c 0,-6.84262 5.54706,-12.38968 12.38968,-12.38968 h 160.10251 c 3.28595,0 6.43732,1.30534 8.76083,3.62886 2.32352,2.32352 3.62888,5.47487 3.62888,8.76082 v 121.20489 c 0,6.84263 -5.54706,12.38968 -12.38971,12.38968 H 334.32932 v 0 c -6.84262,0 -12.38968,-5.54705 -12.38968,-12.38968 z"
       id="path7"
       inkscape:connector-curvature="0"
       style="fill:#e8eaed;fill-rule:evenodd" />
    <path
       d="m 382.08762,218.86 q -0.57812,0.82813 -1.60937,1.25 -1.03125,0.40625 -2.40625,0.40625 -1.39063,0 -2.46875,-0.65625 -1.07813,-0.65625 -1.67188,-1.85937 -0.59375,-1.20313 -0.60937,-2.78125 v -1 q 0,-2.5625 1.20312,-3.96875 1.20313,-1.42188 3.375,-1.42188 1.78125,0 2.85938,0.90625 1.09375,0.90625 1.32812,2.57813 h -1.5 q -0.42187,-2.25 -2.6875,-2.25 -1.5,0 -2.28125,1.0625 -0.78125,1.04687 -0.78125,3.0625 V 215.11 q 0,1.92188 0.875,3.04688 0.875,1.125 2.35938,1.125 0.84375,0 1.46875,-0.1875 0.64062,-0.1875 1.0625,-0.625 v -2.5625 h -2.64063 v -1.21875 h 4.125 z m 5.39844,-3.79687 -1.39063,1.45312 V 220.36 h -1.5 v -11.375 h 1.5 v 5.625 l 5.04688,-5.625 h 1.8125 l -4.46875,5.01563 4.82812,6.35937 h -1.79687 z m 13.5625,0.0312 h -4.92188 v 4.03125 h 5.71875 V 220.36 h -7.21875 v -11.375 h 7.14063 v 1.23438 h -5.64063 v 3.65625 h 4.92188 z m 8.57031,-6.10938 3.71875,9.28125 3.71875,-9.28125 h 1.9375 v 11.375 h -1.5 v -4.4375 l 0.14063,-4.78125 -3.73438,9.21875 h -1.14062 l -3.73438,-9.1875 0.15625,4.75 v 4.4375 h -1.5 v -11.375 z m 17.01563,11.375 q -0.125,-0.25 -0.20313,-0.89062 -1,1.04687 -2.40625,1.04687 -1.25,0 -2.04687,-0.70312 -0.79688,-0.71875 -0.79688,-1.79688 0,-1.32812 1,-2.04687 1,-0.73438 2.82813,-0.73438 h 1.40625 v -0.67187 q 0,-0.75 -0.45313,-1.20313 -0.45312,-0.45312 -1.34375,-0.45312 -0.76562,0 -1.29687,0.39062 -0.51563,0.39063 -0.51563,0.95313 h -1.45312 q 0,-0.64063 0.4375,-1.21875 0.45312,-0.59375 1.21875,-0.9375 0.78125,-0.34375 1.70312,-0.34375 1.45313,0 2.28125,0.73437 0.82813,0.71875 0.85938,2 v 3.89063 q 0,1.17187 0.29687,1.85937 v 0.125 z m -2.39063,-1.10937 q 0.67188,0 1.28125,-0.34375 0.60938,-0.35938 0.89063,-0.92188 v -1.73437 h -1.14063 q -2.65625,0 -2.65625,1.5625 0,0.67187 0.45313,1.0625 0.45312,0.375 1.17187,0.375 z M 435.04075,218.11 q 0,-0.57812 -0.4375,-0.90625 -0.4375,-0.32812 -1.54688,-0.5625 -1.09375,-0.23437 -1.73437,-0.5625 -0.64063,-0.32812 -0.95313,-0.78125 -0.3125,-0.45312 -0.3125,-1.07812 0,-1.03125 0.875,-1.75 0.89063,-0.71875 2.25,-0.71875 1.4375,0 2.32813,0.75 0.90625,0.73437 0.90625,1.89062 h -1.45313 q 0,-0.59375 -0.51562,-1.01562 -0.5,-0.4375 -1.26563,-0.4375 -0.78125,0 -1.23437,0.34375 -0.4375,0.34375 -0.4375,0.89062 0,0.53125 0.40625,0.79688 0.42187,0.26562 1.5,0.51562 1.07812,0.23438 1.75,0.57813 0.67187,0.32812 1,0.79687 0.32812,0.46875 0.32812,1.15625 0,1.125 -0.90625,1.8125 -0.90625,0.6875 -2.35937,0.6875 -1.01563,0 -1.79688,-0.35937 -0.78125,-0.35938 -1.21875,-1 -0.4375,-0.65625 -0.4375,-1.40625 h 1.4375 q 0.0469,0.73437 0.57813,1.15625 0.54687,0.42187 1.4375,0.42187 0.82812,0 1.3125,-0.32812 0.5,-0.32813 0.5,-0.89063 z m 5.29687,-8.25 v 2.04688 h 1.57813 v 1.10937 h -1.57813 v 5.25 q 0,0.5 0.20313,0.76563 0.21875,0.25 0.71875,0.25 0.25,0 0.6875,-0.0937 V 220.36 q -0.5625,0.15625 -1.10938,0.15625 -0.96875,0 -1.46875,-0.57812 -0.48437,-0.59375 -0.48437,-1.67188 v -5.25 h -1.53125 v -1.10937 h 1.53125 V 209.86 Z m 6.77344,10.65625 q -1.71875,0 -2.79688,-1.125 -1.07812,-1.14062 -1.07812,-3.03125 v -0.26562 q 0,-1.25 0.46875,-2.23438 0.48437,-1 1.34375,-1.54687 0.875,-0.5625 1.875,-0.5625 1.65625,0 2.5625,1.09375 0.92187,1.07812 0.92187,3.09375 v 0.60937 h -5.73437 q 0.0312,1.25 0.73437,2.01563 0.70313,0.76562 1.78125,0.76562 0.76563,0 1.29688,-0.3125 0.53125,-0.3125 0.92187,-0.82812 l 0.89063,0.6875 q -1.0625,1.64062 -3.1875,1.64062 z m -0.1875,-7.57812 q -0.875,0 -1.46875,0.64062 -0.59375,0.625 -0.73438,1.78125 h 4.23438 v -0.10937 q -0.0625,-1.10938 -0.59375,-1.70313 -0.53125,-0.60937 -1.4375,-0.60937 z m 9.24219,0.26562 q -0.32813,-0.0625 -0.71875,-0.0625 -1.42188,0 -1.92188,1.21875 v 6 H 452.072 v -8.45312 h 1.40625 l 0.0312,0.96875 q 0.70312,-1.125 2.01562,-1.125 0.42188,0 0.64063,0.10937 z"
       id="path9"
       inkscape:connector-curvature="0"
       style="fill:#000000;fill-rule:nonzero" />
    <path
       d="M 245.61154,305.91077 H 577.89502"
       id="path11"
       inkscape:connector-curvature="0"
       style="fill:#000000;fill-opacity:0;fill-rule:evenodd" />
    <path
       d="M 245.61154,305.91077 H 577.89502"
       id="path13"
       inkscape:connector-curvature="0"
       style="fill-rule:evenodd;stroke:#000000;stroke-width:1;stroke-linecap:butt;stroke-linejoin:round;stroke-dasharray:1, 3" />
    <path
       d="M 169.72179,247.04199 V 286.0971"
       id="path15"
       inkscape:connector-curvature="0"
       style="fill:#000000;fill-opacity:0;fill-rule:evenodd" />
    <path
       d="M 169.72179,247.04199 V 286.0971"
       id="path17"
       inkscape:connector-curvature="0"
       style="fill-rule:evenodd;stroke:#000000;stroke-width:1;stroke-linecap:butt;stroke-linejoin:round;stroke-dasharray:1, 3" />
    <path
       d="m 245.61154,227.21523 330.3937,3.37007"
       id="path19"
       inkscape:connector-curvature="0"
       style="fill:#000000;fill-opacity:0;fill-rule:evenodd" />
    <path
       d="m 245.61154,227.21523 330.3937,3.37007"
       id="path21"
       inkscape:connector-curvature="0"
       style="fill-rule:evenodd;stroke:#000000;stroke-width:1;stroke-linecap:butt;stroke-linejoin:round;stroke-dasharray:1, 3" />
    <path
       d="m 478.4106,268.2479 c 26.18112,0 39.27164,-9.37006 52.36221,-18.74014 13.09058,-9.37009 26.18109,-18.74016 52.36219,-18.74016"
       id="path23"
       inkscape:connector-curvature="0"
       style="fill:#000000;fill-opacity:0;fill-rule:evenodd" />
    <path
       d="m 478.41064,268.2479 c 26.18109,0 39.27167,-9.37006 52.36218,-18.74014 6.54529,-4.68505 13.09058,-9.37009 21.27216,-12.88387 4.09082,-1.75688 8.5907,-3.22096 13.70422,-4.2458 2.5567,-0.51244 5.26685,-0.91506 8.15601,-1.18956 0.72223,-0.0686 1.45575,-0.12926 2.20074,-0.1816 l 0.17871,-0.0115"
       id="path25"
       inkscape:connector-curvature="0"
       style="fill-rule:evenodd;stroke:#666666;stroke-width:2;stroke-linecap:butt;stroke-linejoin:round" />
    <path
       d="m 576.28467,230.99547 -2.17316,2.32271 6.10132,-2.45337 -6.25085,-2.04248 z"
       id="path27"
       inkscape:connector-curvature="0"
       style="fill:#666666;fill-rule:evenodd;stroke:#666666;stroke-width:2;stroke-linecap:butt" />
    <path
       d="m 245.61154,305.91077 c 25.71176,0 38.56918,-9.41733 51.42349,-18.83466 12.85434,-9.41732 25.7056,-18.83465 51.41116,-18.83465"
       id="path29"
       inkscape:connector-curvature="0"
       style="fill:#000000;fill-opacity:0;fill-rule:evenodd" />
    <path
       d="m 245.61154,305.91077 c 25.71173,0 38.56918,-9.41733 51.42349,-18.83466 6.42719,-4.70864 12.85355,-9.41732 20.88639,-12.94882 4.01635,-1.76575 8.43438,-3.23718 13.45486,-4.26721 2.51025,-0.51501 5.17114,-0.91968 8.00775,-1.19556 0.70917,-0.069 1.42929,-0.12991 2.1608,-0.18249 l 0.0513,-0.003"
       id="path31"
       inkscape:connector-curvature="0"
       style="fill-rule:evenodd;stroke:#666666;stroke-width:2;stroke-linecap:butt;stroke-linejoin:round" />
    <path
       d="m 341.59613,268.47864 -2.16998,2.32565 6.09799,-2.46164 -6.25366,-2.03399 z"
       id="path33"
       inkscape:connector-curvature="0"
       style="fill:#666666;fill-rule:evenodd;stroke:#666666;stroke-width:2;stroke-linecap:butt" />
    <path
       d="m 478.4106,268.2479 c 26.18112,0 39.27164,9.46457 52.36221,18.92914 13.09058,9.46457 26.18109,18.92914 52.36219,18.92914"
       id="path35"
       inkscape:connector-curvature="0"
       style="fill:#000000;fill-opacity:0;fill-rule:evenodd" />
    <path
       d="m 478.41064,268.2479 c 26.18109,0 39.27167,9.46457 52.36218,18.92914 6.54529,4.7323 13.09058,9.46457 21.27216,13.01379 4.09082,1.7746 8.5907,3.25345 13.70422,4.28864 2.5567,0.51758 5.26685,0.92425 8.15601,1.20157 0.72223,0.0693 1.45575,0.13052 2.20074,0.18338 l 0.17878,0.0116"
       id="path37"
       inkscape:connector-curvature="0"
       style="fill-rule:evenodd;stroke:#666666;stroke-width:2;stroke-linecap:butt;stroke-linejoin:round" />
    <path
       d="m 576.2847,305.876 -2.32343,2.17236 6.25159,-2.04037 -6.10052,-2.45542 z"
       id="path39"
       inkscape:connector-curvature="0"
       style="fill:#666666;fill-rule:evenodd;stroke:#666666;stroke-width:2;stroke-linecap:butt" />
    <path
       d="m 245.61154,227.21523 c 25.71176,0 38.56918,10.25984 51.42349,20.51968 12.85434,10.25985 25.7056,20.5197 51.41116,20.5197"
       id="path41"
       inkscape:connector-curvature="0"
       style="fill:#000000;fill-opacity:0;fill-rule:evenodd" />
    <path
       d="m 245.61154,227.21523 c 25.71173,0 38.56918,10.25984 51.42349,20.51968 6.42719,5.12992 12.85355,10.25985 20.88639,14.10729 4.01635,1.9237 8.43438,3.52682 13.45486,4.64899 2.51025,0.56109 5.17114,1.00192 8.00775,1.30252 0.70917,0.0751 1.42929,0.14151 2.1608,0.19882 l 0.0521,0.004"
       id="path43"
       inkscape:connector-curvature="0"
       style="fill-rule:evenodd;stroke:#666666;stroke-width:2;stroke-linecap:butt;stroke-linejoin:round" />
    <path
       d="m 341.5969,267.99625 -2.33234,2.16278 6.25992,-2.01465 -6.09036,-2.48047 z"
       id="path45"
       inkscape:connector-curvature="0"
       style="fill:#666666;fill-rule:evenodd;stroke:#666666;stroke-width:2;stroke-linecap:butt" />
    <path
       d="m 84.52231,127.36923 167.90552,-0.0315 v 65.73229 l -167.90552,0.0315 z"
       id="path47"
       inkscape:connector-curvature="0"
       style="fill:#000000;fill-opacity:0;fill-rule:evenodd" />
    <path
       d="m 118.00227,153.78972 2.51562,-4.7e-4 v 5.73437 l 0.15625,-3e-5 4.875,-5.73529 3.04688,-5.8e-4 v 0.15625 l -4.82812,5.51654 5.32812,7.53024 v 0.15625 l -3.07812,5.8e-4 -3.98438,-5.68675 -1.51562,1.76592 v 3.92187 l -2.51563,4.8e-4 z m 15.46263,13.65335 q -1.71875,3.2e-4 -2.60937,-1.06201 -0.89063,-1.06233 -0.89063,-2.96858 v -5.78125 l 2.4375,-4.6e-4 v 5.48437 q 0,0.96875 0.46875,1.53116 0.46875,0.54679 1.23438,0.54665 1.04687,-2e-4 1.65625,-0.76595 0.60937,-0.76573 0.60937,-1.95323 v -4.84375 l 2.45313,-4.6e-4 v 9.51563 l -2.29688,4.3e-4 v -1.1875 l -0.15625,3e-5 q -0.42187,0.68757 -1.20312,1.09398 -0.76563,0.39076 -1.70313,0.39094 z m 13.0501,-0.002 q -0.98438,1.9e-4 -1.73438,-0.40593 -0.75,-0.40609 -1.125,-1.03103 l -0.15625,3e-5 v 1.14062 l -2.29687,4.3e-4 v -13.35937 l 2.45312,-4.6e-4 v 3.65625 l -0.15625,1.34378 0.15625,-3e-5 q 0.39063,-0.60945 1.125,-1.03147 0.75,-0.42201 1.73438,-0.42219 1.28125,-2.4e-4 2.32812,0.6402 1.0625,0.64041 1.65625,1.79655 0.59375,1.15614 0.59375,2.62489 0,1.46875 -0.59375,2.62511 -0.59375,1.14073 -1.65625,1.78157 -1.04687,0.64081 -2.32812,0.64105 z m -0.4375,-2.2499 q 0.6875,-1.4e-4 1.28125,-0.35962 0.60937,-0.3595 0.95312,-0.98456 0.35938,-0.64069 0.35938,-1.45319 0,-0.82812 -0.35938,-1.45306 -0.34375,-0.64057 -0.95312,-0.98419 -0.59375,-0.34365 -1.28125,-0.34351 -0.67188,1.2e-4 -1.26563,0.34398 -0.59375,0.34386 -0.95312,0.98456 -0.35938,0.62506 -0.35938,1.45318 0,0.8125 0.35938,1.45307 0.35937,0.62492 0.95312,0.98419 0.59375,0.35927 1.26563,0.35915 z m 11.36584,2.24786 q -1.42187,2.6e-4 -2.5625,-0.64015 -1.14062,-0.65604 -1.78125,-1.79654 -0.64062,-1.15613 -0.64062,-2.59363 0,-1.35937 0.625,-2.53137 0.64062,-1.17198 1.75,-1.8597 1.125,-0.68771 2.51562,-0.68797 1.46875,-2.7e-4 2.53125,0.64015 1.0625,0.6248 1.60938,1.73407 0.5625,1.09365 0.5625,2.4374 0,0.42187 -0.0625,0.82814 l -7.14063,0.001 q 0.1875,1.12495 0.90625,1.71858 0.71875,0.59361 1.71875,0.59341 0.84375,-1.5e-4 1.45313,-0.35963 0.60937,-0.37512 0.95312,-0.98456 l 1.98438,0.96837 q -1.45313,2.53153 -4.42188,2.53209 z m 2.25,-6.20355 q -0.0312,-0.45311 -0.32812,-0.89057 -0.28125,-0.43744 -0.79688,-0.71859 -0.51562,-0.29679 -1.20312,-0.29665 -0.875,1.7e-4 -1.5,0.5159 -0.625,0.50012 -0.90625,1.39079 z m 4.23247,-3.61017 2.29687,-4.3e-4 v 1.26563 l 0.15625,-3e-5 q 0.35938,-0.67194 1.09375,-1.10959 0.75,-0.43764 1.64063,-0.43781 0.65625,-1.2e-4 1.20312,0.20291 v 2.45313 q -0.5,-0.18741 -0.85937,-0.26547 -0.34375,-0.0937 -0.73438,-0.0936 -1.07812,2e-4 -1.71875,0.78157 -0.625,0.78138 -0.625,1.9845 v 4.73438 l -2.45312,4.5e-4 z m 7.96622,-0.002 2.29687,-4.2e-4 v 1.1875 l 0.15625,-3e-5 q 0.42188,-0.68758 1.20313,-1.07836 0.79687,-0.4064 1.70312,-0.40657 1.71875,-3.2e-4 2.60938,1.04639 0.90625,1.04671 0.90625,2.85921 v 5.90625 l -2.45313,4.5e-4 v -5.60937 q 0,-0.92188 -0.46875,-1.42179 -0.46875,-0.4999 -1.29687,-0.49975 -1,1.8e-4 -1.60938,0.76593 -0.59375,0.76573 -0.59375,1.92198 v 4.84375 l -2.45312,4.6e-4 z m 15.64384,9.80957 q -1.42187,2.6e-4 -2.5625,-0.64015 -1.14062,-0.65603 -1.78125,-1.79654 -0.64062,-1.15613 -0.64062,-2.59363 0,-1.35937 0.625,-2.53137 0.64062,-1.17198 1.75,-1.85969 1.125,-0.68772 2.51562,-0.68798 1.46875,-2.7e-4 2.53125,0.64016 1.0625,0.6248 1.60938,1.73407 0.5625,1.09364 0.5625,2.43739 0,0.42187 -0.0625,0.82814 l -7.14063,0.001 q 0.1875,1.12496 0.90625,1.71858 0.71875,0.59362 1.71875,0.59342 0.84375,-1.5e-4 1.45313,-0.35964 0.60937,-0.37512 0.95312,-0.98455 l 1.98438,0.96836 q -1.45313,2.53153 -4.42188,2.53209 z m 2.25,-6.20355 q -0.0312,-0.45311 -0.32812,-0.89056 -0.28125,-0.43744 -0.79688,-0.7186 -0.51562,-0.29678 -1.20312,-0.29665 -0.875,1.7e-4 -1.5,0.5159 -0.625,0.50013 -0.90625,1.3908 z m 8.09309,6.06099 q -0.70312,1.2e-4 -1.29687,-0.2185 -0.59375,-0.21865 -0.96875,-0.59357 -0.875,-0.8436 -0.875,-2.39047 v -4.375 l -1.67188,3.2e-4 v -2.09375 l 1.67188,-3.2e-4 v -2.6875 l 2.4375,-4.6e-4 v 2.6875 l 2.32812,-4.3e-4 v 2.09375 l -2.32812,4.3e-4 v 3.9375 q 0,0.71875 0.3125,1.04683 0.26562,0.29681 0.90625,0.29669 0.34375,-6e-5 0.57812,-0.0939 0.23438,-0.0938 0.60938,-0.32823 v 2.39063 q -0.79688,0.32827 -1.70313,0.32844 z m 7.79044,0.13916 q -1.42187,2.6e-4 -2.5625,-0.64015 -1.14062,-0.65604 -1.78125,-1.79654 -0.64062,-1.15613 -0.64062,-2.59363 0,-1.35937 0.625,-2.53136 0.64062,-1.17199 1.75,-1.85971 1.125,-0.68771 2.51562,-0.68797 1.46875,-2.7e-4 2.53125,0.64015 1.0625,0.6248 1.60938,1.73407 0.5625,1.09365 0.5625,2.4374 0,0.42187 -0.0625,0.82814 l -7.14063,0.001 q 0.1875,1.12497 0.90625,1.71858 0.71875,0.59361 1.71875,0.59343 0.84375,-1.7e-4 1.45313,-0.35965 0.60937,-0.37512 0.95312,-0.98456 l 1.98438,0.96839 q -1.45313,2.53151 -4.42188,2.53207 z m 2.25,-6.20355 q -0.0312,-0.45311 -0.32812,-0.89057 -0.28125,-0.43743 -0.79688,-0.71859 -0.51562,-0.29679 -1.20312,-0.29665 -0.875,1.7e-4 -1.5,0.5159 -0.625,0.50012 -0.90625,1.39079 z m 7.95081,6.20164 q -1.73438,3.2e-4 -2.8125,-0.7026 -1.0625,-0.71855 -1.5,-1.84346 l 2.1875,-0.95354 q 0.29687,0.67181 0.84375,1.01546 0.54687,0.34366 1.28125,0.34352 0.67187,-1.4e-4 1.10937,-0.21896 0.45313,-0.21885 0.45313,-0.70322 0,-0.46875 -0.40625,-0.68743 -0.40625,-0.23429 -1.23438,-0.42164 l -1.10937,-0.24979 q -1.15625,-0.28103 -1.92188,-1.01526 -0.76562,-0.73423 -0.76562,-1.84361 0,-0.8125 0.48437,-1.46884 0.5,-0.65634 1.34375,-1.00024 0.85938,-0.35955 1.875,-0.35973 2.95313,-5.7e-4 3.9375,2.06175 l -2.07812,0.92227 q -0.5625,-0.99989 -1.79688,-0.99966 -0.64062,1.2e-4 -1.01562,0.23456 -0.35938,0.21882 -0.35938,0.5782 0,0.67187 1.26563,1.01538 l 1.39062,0.32786 q 1.42188,0.35912 2.14063,1.09336 0.71875,0.71861 0.71875,1.78111 0,0.90625 -0.53125,1.60948 -0.53125,0.70322 -1.45313,1.09401 -0.92187,0.39081 -2.04687,0.39102 z"
       id="path49"
       inkscape:connector-curvature="0"
       style="fill:#4285f4;fill-rule:nonzero" />
    <path
       d="m 569.18896,127.36923 167.90552,-0.0315 v 65.73229 l -167.90552,0.0315 z"
       id="path51"
       inkscape:connector-curvature="0"
       style="fill:#000000;fill-opacity:0;fill-rule:evenodd" />
    <path
       d="m 628.241,156.44116 q -1.92188,3.7e-4 -3.53125,-0.90558 -1.60938,-0.90596 -2.5625,-2.49953 -0.95313,-1.59356 -0.95313,-3.56231 0,-1.98438 0.95313,-3.57831 0.95312,-1.59393 2.5625,-2.50047 1.60937,-0.90656 3.53125,-0.90693 1.57812,-2.8e-4 2.875,0.54635 1.29687,0.54663 2.21875,1.56208 l -1.73438,1.70345 q -0.67187,-0.71863 -1.48437,-1.06223 -0.8125,-0.35922 -1.89063,-0.35902 -1.23437,2.4e-4 -2.26562,0.57855 -1.01563,0.5627 -1.625,1.62531 -0.60938,1.04699 -0.60938,2.39074 0,1.34375 0.60938,2.39051 0.625,1.04677 1.65625,1.62469 1.04687,0.5623 2.26562,0.56207 1.875,-3.5e-4 3.0625,-1.09432 0.375,-0.34382 0.65625,-0.8595 0.28125,-0.5313 0.40625,-1.1407 l -4.1875,7.9e-4 v -2.14062 l 6.54688,-0.001 q 0.125,0.51561 0.125,1.17186 0,1.32812 -0.40625,2.46883 -0.39063,1.12507 -1.21875,1.9846 -0.89063,0.96892 -2.15625,1.48477 -1.26563,0.51587 -2.84375,0.51616 z m 13.16046,-0.002 q -1.48437,2.9e-4 -2.64062,-0.65575 -1.15625,-0.67166 -1.79688,-1.81216 -0.64062,-1.15613 -0.64062,-2.57801 0,-1.42187 0.64062,-2.57824 0.64063,-1.15637 1.79688,-1.81284 1.15625,-0.67209 2.64062,-0.67238 1.45313,-2.6e-4 2.60938,0.67139 1.15625,0.65604 1.79687,1.81216 0.64063,1.15613 0.64063,2.57801 0,1.42187 -0.64063,2.57824 -0.64062,1.14075 -1.79687,1.81284 -1.15625,0.65648 -2.60938,0.65674 z m 0,-2.25 q 0.70313,-1.2e-4 1.29688,-0.32836 0.60937,-0.34387 0.95312,-0.98455 0.35938,-0.64071 0.35938,-1.48446 0,-0.84375 -0.35938,-1.46867 -0.34375,-0.64056 -0.95312,-0.96857 -0.59375,-0.34364 -1.29688,-0.34352 -0.71875,1.4e-4 -1.3125,0.34401 -0.59375,0.32823 -0.96875,0.96894 -0.35937,0.62506 -0.35937,1.46881 0,0.82812 0.35937,1.48431 0.375,0.64055 0.96875,0.98419 0.59375,0.32801 1.3125,0.32787 z m 11.47357,2.24785 q -1.48437,2.9e-4 -2.64062,-0.65575 -1.15625,-0.67166 -1.79688,-1.81216 -0.64062,-1.15613 -0.64062,-2.57801 0,-1.42187 0.64062,-2.57824 0.64063,-1.15638 1.79688,-1.81284 1.15625,-0.67209 2.64062,-0.67238 1.45313,-2.6e-4 2.60938,0.67139 1.15625,0.65603 1.79687,1.81216 0.64063,1.15613 0.64063,2.57801 0,1.42187 -0.64063,2.57824 -0.64062,1.14075 -1.79687,1.81284 -1.15625,0.65648 -2.60938,0.65674 z m 0,-2.25 q 0.70313,-1.3e-4 1.29688,-0.32837 0.60937,-0.34386 0.95312,-0.98455 0.35938,-0.6407 0.35938,-1.48445 0,-0.84375 -0.35938,-1.46867 -0.34375,-0.64056 -0.95312,-0.96858 -0.59375,-0.34363 -1.29688,-0.34351 -0.71875,1.4e-4 -1.3125,0.34401 -0.59375,0.32823 -0.96875,0.96892 -0.35937,0.62508 -0.35937,1.46883 0,0.82812 0.35937,1.48429 0.375,0.64057 0.96875,0.98421 0.59375,0.328 1.3125,0.32787 z m 11.30176,6.27914 q -1.8125,3.4e-4 -3.01562,-0.81193 -1.1875,-0.81229 -1.59375,-1.95284 l 2.29687,-0.9223 q 0.29688,0.70306 0.90625,1.10921 0.625,0.42175 1.40625,0.42161 1.15625,-2.3e-4 1.82813,-0.7191 0.6875,-0.70325 0.6875,-2.01575 v -0.75 l -0.14063,2e-5 q -0.45312,0.64071 -1.1875,0.9846 -0.71875,0.32826 -1.65625,0.32843 -1.17187,2.3e-4 -2.1875,-0.60896 -1.01562,-0.60918 -1.64062,-1.71845 -0.60938,-1.10925 -0.60938,-2.578 0,-1.46875 0.60938,-2.57825 0.625,-1.10948 1.64062,-1.71905 1.01563,-0.60956 2.1875,-0.60979 0.9375,-1.7e-4 1.65625,0.34345 0.73438,0.32798 1.1875,0.96852 l 0.14063,-2e-5 v -1.01562 l 2.35937,-4.4e-4 v 8.85937 q 0,1.53125 -0.60937,2.64073 -0.59375,1.12511 -1.70313,1.7347 -1.09375,0.60957 -2.5625,0.60986 z m 0.0312,-6.54689 q 1.03125,-2e-4 1.75,-0.71907 0.73438,-0.71889 0.73438,-1.96889 0,-1.28125 -0.71875,-1.98425 -0.71875,-0.70299 -1.76563,-0.70279 -1.03125,2e-4 -1.76562,0.71909 -0.73438,0.70326 -0.73438,1.96888 0,1.26563 0.73438,1.98424 0.73437,0.70299 1.76562,0.70279 z m 7.21961,-11.14198 2.45312,-4.6e-4 v 13.35937 l -2.45312,4.6e-4 z m 9.22607,13.65452 q -1.42188,2.6e-4 -2.5625,-0.64015 -1.14063,-0.65603 -1.78125,-1.79654 -0.64063,-1.15613 -0.64063,-2.59363 0,-1.35937 0.625,-2.53135 0.64063,-1.172 1.75,-1.85971 1.125,-0.68772 2.51563,-0.68798 1.46875,-2.7e-4 2.53125,0.64016 1.0625,0.6248 1.60937,1.73407 0.5625,1.09364 0.5625,2.43739 0,0.42187 -0.0625,0.82814 l -7.14062,0.001 q 0.1875,1.12497 0.90625,1.71858 0.71875,0.59362 1.71875,0.59343 0.84375,-1.6e-4 1.45312,-0.35965 0.60938,-0.37512 0.95313,-0.98455 l 1.98437,0.96838 q -1.45312,2.53151 -4.42187,2.53207 z m 2.25,-6.20355 q -0.0312,-0.45311 -0.32813,-0.89056 -0.28125,-0.43744 -0.79687,-0.7186 -0.51563,-0.29678 -1.20313,-0.29665 -0.875,1.7e-4 -1.5,0.5159 -0.625,0.50013 -0.90625,1.3908 z m 3.04498,5.90569 z"
       id="path53"
       inkscape:connector-curvature="0"
       style="fill:#000000;fill-rule:nonzero" />
    <path
       d="m 586.7962,178.44894 q -1.95313,3.7e-4 -3.5625,-0.9212 -1.59375,-0.92159 -2.51563,-2.51516 -0.92187,-1.59358 -0.92187,-3.53108 0,-1.95312 0.92187,-3.54704 0.92188,-1.59393 2.51563,-2.5161 1.60937,-0.92218 3.5625,-0.92255 3.01562,-5.6e-4 5,2.18656 l -1.78125,1.71908 q -1.28125,-1.51538 -3.20313,-1.51501 -1.25,2.3e-4 -2.28125,0.57855 -1.01562,0.56269 -1.60937,1.60967 -0.59375,1.03137 -0.59375,2.40637 0,1.35937 0.59375,2.40613 0.59375,1.03114 1.60937,1.60908 1.03125,0.5623 2.28125,0.56208 2.10938,-4e-4 3.53125,-1.75068 l 1.78125,1.70279 q -0.98437,1.18769 -2.34375,1.81295 -1.34375,0.62525 -2.98437,0.62556 z m 11.50946,-0.002 q -1.48438,2.9e-4 -2.64063,-0.65574 -1.15625,-0.67166 -1.79687,-1.81217 -0.64063,-1.15613 -0.64063,-2.578 0,-1.42188 0.64063,-2.57825 0.64062,-1.15637 1.79687,-1.81283 1.15625,-0.67209 2.64063,-0.67238 1.45312,-2.8e-4 2.60937,0.67138 1.15625,0.65604 1.79688,1.81217 0.64062,1.15613 0.64062,2.578 0,1.42188 -0.64062,2.57825 -0.64063,1.14075 -1.79688,1.81283 -1.15625,0.65647 -2.60937,0.65674 z m 0,-2.25 q 0.70312,-1.2e-4 1.29687,-0.32837 0.60938,-0.34385 0.95313,-0.98454 0.35937,-0.6407 0.35937,-1.48445 0,-0.84375 -0.35937,-1.46867 -0.34375,-0.64057 -0.95313,-0.96859 -0.59375,-0.34362 -1.29687,-0.3435 -0.71875,1.4e-4 -1.3125,0.34399 -0.59375,0.32825 -0.96875,0.96894 -0.35938,0.62507 -0.35938,1.46882 0,0.82813 0.35938,1.4843 0.375,0.64056 0.96875,0.98419 0.59375,0.32802 1.3125,0.32788 z m 6.72443,-7.56375 2.29687,-4.4e-4 v 1.1875 l 0.15625,-3e-5 q 0.4375,-0.68758 1.1875,-1.07834 0.76563,-0.4064 1.70313,-0.40657 1,-1.8e-4 1.75,0.48404 0.75,0.46861 1.0625,1.1873 0.46875,-0.73445 1.28125,-1.20335 0.8125,-0.46891 1.90625,-0.46912 1.625,-3e-4 2.46875,0.99954 0.85937,0.99984 0.85937,2.68734 v 6.125 l -2.42187,4.5e-4 v -5.67187 q 0,-0.89063 -0.42188,-1.37493 -0.42187,-0.48429 -1.17187,-0.48414 -0.95313,1.7e-4 -1.53125,0.75027 -0.5625,0.75011 -0.5625,1.98448 v 4.79688 l -2.4375,4.6e-4 v -5.67188 q 0,-0.89062 -0.4375,-1.37491 -0.4375,-0.48429 -1.23438,-0.48414 -0.90625,1.7e-4 -1.45312,0.75027 -0.54688,0.75009 -0.54688,1.98447 v 4.79687 l -2.45312,4.8e-4 z m 16.93335,-0.003 2.29687,-4.2e-4 v 1.15625 l 0.14063,-2e-5 q 0.39062,-0.60945 1.14062,-1.03148 0.75,-0.42201 1.71875,-0.42219 1.28125,-2.3e-4 2.32813,0.64019 1.0625,0.64043 1.65625,1.79656 0.59375,1.15614 0.59375,2.62489 0,1.46875 -0.59375,2.62511 -0.59375,1.14075 -1.65625,1.78157 -1.04688,0.64082 -2.32813,0.64105 -0.96875,1.8e-4 -1.73437,-0.40591 -0.75,-0.40612 -1.125,-1.03104 l -0.14063,2e-5 0.14063,1.34373 v 3.82813 l -2.4375,4.4e-4 z m 4.85937,7.5616 q 0.6875,-1.3e-4 1.28125,-0.35962 0.60938,-0.35949 0.95313,-0.98455 0.35937,-0.64069 0.35937,-1.45319 0,-0.82813 -0.35937,-1.45306 -0.34375,-0.64057 -0.95313,-0.9842 -0.59375,-0.34364 -1.28125,-0.3435 -0.67187,1.2e-4 -1.26562,0.34398 -0.59375,0.34387 -0.95313,0.98455 -0.34375,0.62507 -0.34375,1.45319 0,0.8125 0.34375,1.45306 0.35938,0.62494 0.95313,0.9842 0.59375,0.35926 1.26562,0.35914 z m 10.24475,2.24808 q -1.71875,3.2e-4 -2.60937,-1.06201 -0.89063,-1.06233 -0.89063,-2.96858 v -5.78125 l 2.4375,-4.6e-4 v 5.48437 q 0,0.96875 0.46875,1.53116 0.46875,0.54679 1.23438,0.54665 1.04687,-2e-4 1.65625,-0.76593 0.60937,-0.76575 0.60937,-1.95325 v -4.84375 l 2.45313,-4.6e-4 v 9.51563 l -2.29688,4.3e-4 v -1.1875 l -0.15625,3e-5 q -0.42187,0.68757 -1.20312,1.09397 -0.76563,0.39077 -1.70313,0.39095 z m 11.97156,-0.14287 q -0.70312,1.2e-4 -1.29687,-0.2185 -0.59375,-0.21865 -0.96875,-0.59359 -0.875,-0.84358 -0.875,-2.39045 v -4.375 l -1.67188,3.2e-4 v -2.09375 l 1.67188,-3.2e-4 v -2.6875 l 2.4375,-4.6e-4 v 2.6875 l 2.32812,-4.3e-4 v 2.09375 l -2.32812,4.3e-4 v 3.9375 q 0,0.71875 0.3125,1.04681 0.26562,0.29683 0.90625,0.29671 0.34375,-6e-5 0.57812,-0.0939 0.23438,-0.0938 0.60938,-0.32823 v 2.39063 q -0.79688,0.32826 -1.70313,0.32844 z m 7.79047,0.13916 q -1.42188,2.6e-4 -2.5625,-0.64015 -1.14063,-0.65604 -1.78125,-1.79654 -0.64063,-1.15613 -0.64063,-2.59363 0,-1.35937 0.625,-2.53137 0.64063,-1.17198 1.75,-1.85969 1.125,-0.68772 2.51563,-0.68798 1.46875,-2.7e-4 2.53125,0.64015 1.0625,0.62481 1.60937,1.73407 0.5625,1.09365 0.5625,2.4374 0,0.42187 -0.0625,0.82814 l -7.14062,0.001 q 0.1875,1.12495 0.90625,1.71858 0.71875,0.59362 1.71875,0.59342 0.84375,-1.6e-4 1.45312,-0.35964 0.60938,-0.37512 0.95313,-0.98456 l 1.98437,0.96837 q -1.45312,2.53153 -4.42187,2.53209 z m 2.25,-6.20355 q -0.0312,-0.45311 -0.32813,-0.89056 -0.28125,-0.43744 -0.79687,-0.7186 -0.51563,-0.29678 -1.20313,-0.29665 -0.875,1.7e-4 -1.5,0.5159 -0.625,0.50012 -0.90625,1.3908 z m 3.04498,5.90569 z m 5.89679,-13.36049 8.46875,-0.002 v 2.39062 l -5.95313,0.001 v 3.09375 l 5.35938,-0.001 v 2.39063 l -5.35938,0.001 v 3.09375 l 5.95313,-0.001 v 2.39062 l -8.46875,0.002 z m 10.53278,3.84178 2.29687,-4.3e-4 v 1.1875 l 0.15625,-3e-5 q 0.42188,-0.68759 1.20313,-1.07835 0.79687,-0.40641 1.70312,-0.40657 1.71875,-3.2e-4 2.60938,1.04638 0.90625,1.04671 0.90625,2.85921 v 5.90625 l -2.45313,4.6e-4 v -5.60938 q 0,-0.92187 -0.46875,-1.42178 -0.46875,-0.49992 -1.29687,-0.49976 -1,1.9e-4 -1.60938,0.76592 -0.59375,0.76575 -0.59375,1.922 v 4.84375 l -2.45312,4.5e-4 z m 15.47235,13.84085 q -1.8125,3.3e-4 -3.01563,-0.81194 -1.1875,-0.81228 -1.59375,-1.95283 l 2.29688,-0.9223 q 0.29687,0.70306 0.90625,1.1092 0.625,0.42176 1.40625,0.42162 1.15625,-2.3e-4 1.82812,-0.7191 0.6875,-0.70325 0.6875,-2.01575 v -0.75 l -0.14062,2e-5 q -0.45313,0.64071 -1.1875,0.9846 -0.71875,0.32826 -1.65625,0.32843 -1.17188,2.3e-4 -2.1875,-0.60896 -1.01563,-0.60918 -1.64063,-1.71845 -0.60937,-1.10925 -0.60937,-2.578 0,-1.46875 0.60937,-2.57825 0.625,-1.10948 1.64063,-1.71905 1.01562,-0.60956 2.1875,-0.60979 0.9375,-1.7e-4 1.65625,0.34345 0.73437,0.32798 1.1875,0.96852 l 0.14062,-2e-5 v -1.01562 l 2.35938,-4.5e-4 v 8.85938 q 0,1.53125 -0.60938,2.64073 -0.59375,1.12511 -1.70312,1.7347 -1.09375,0.60958 -2.5625,0.60986 z m 0.0312,-6.54689 q 1.03125,-1.8e-4 1.75,-0.71907 0.73437,-0.71889 0.73437,-1.96889 0,-1.28125 -0.71875,-1.98425 -0.71875,-0.70299 -1.76562,-0.70279 -1.03125,2e-4 -1.76563,0.71908 -0.73437,0.70327 -0.73437,1.96889 0,1.26563 0.73437,1.98424 0.73438,0.70299 1.76563,0.70279 z m 8.61029,-8.34537 q -0.65625,1.2e-4 -1.125,-0.46853 -0.46875,-0.46866 -0.46875,-1.10929 0,-0.65625 0.46875,-1.10946 0.46875,-0.46885 1.125,-0.46897 0.65625,-1.2e-4 1.10937,0.46855 0.45313,0.45304 0.45313,1.10929 0,0.64062 -0.45313,1.10946 -0.45312,0.46883 -1.10937,0.46895 z m -1.23438,1.04712 2.4375,-4.6e-4 v 9.51563 l -2.4375,4.6e-4 z m 4.97418,-9.5e-4 2.29688,-4.2e-4 v 1.1875 l 0.15625,-3e-5 q 0.42187,-0.68758 1.20312,-1.07836 0.79688,-0.40638 1.70313,-0.40657 1.71875,-3.2e-4 2.60937,1.04639 0.90625,1.04671 0.90625,2.85921 v 5.90625 l -2.45312,4.5e-4 v -5.60937 q 0,-0.92188 -0.46875,-1.42178 -0.46875,-0.49991 -1.29688,-0.49976 -1,1.8e-4 -1.60937,0.76593 -0.59375,0.76573 -0.59375,1.92198 v 4.84375 l -2.45313,4.6e-4 z m 15.64386,9.80957 q -1.42187,2.8e-4 -2.5625,-0.64013 -1.14062,-0.65604 -1.78125,-1.79656 -0.64062,-1.15612 -0.64062,-2.59362 0,-1.35938 0.625,-2.53136 0.64062,-1.172 1.75,-1.85971 1.125,-0.68772 2.51562,-0.68797 1.46875,-2.8e-4 2.53125,0.64015 1.0625,0.6248 1.60938,1.73407 0.5625,1.09364 0.5625,2.43739 0,0.42188 -0.0625,0.82814 l -7.14063,0.001 q 0.1875,1.12497 0.90625,1.71859 0.71875,0.59361 1.71875,0.59342 0.84375,-1.6e-4 1.45313,-0.35964 0.60937,-0.37513 0.95312,-0.98456 l 1.98438,0.96838 q -1.45313,2.53153 -4.42188,2.53207 z m 2.25,-6.20355 q -0.0312,-0.45311 -0.32812,-0.89056 -0.28125,-0.43744 -0.79688,-0.7186 -0.51562,-0.29677 -1.20312,-0.29664 -0.875,1.6e-4 -1.5,0.51589 -0.625,0.50013 -0.90625,1.39081 z"
       id="path55"
       inkscape:connector-curvature="0"
       style="fill:#000000;fill-rule:nonzero" />
    <path
       d="m 583.1496,207.38846 h 151.77954 v 39.65353 H 583.1496 Z"
       id="path57"
       inkscape:connector-curvature="0"
       style="fill:#ffffff;fill-rule:evenodd" />
    <path
       d="m 583.1496,207.38846 h 151.77954 v 39.65353 H 583.1496 Z"
       id="path59"
       inkscape:connector-curvature="0"
       style="fill-rule:evenodd;stroke:#666666;stroke-width:2;stroke-linecap:butt;stroke-linejoin:round" />
    <path
       d="m 602.13617,214.46835 h 2.09375 l 3.84375,6.40625 h 0.0937 l -0.0937,-1.84375 v -4.5625 h 1.78125 v 9.54687 h -1.89063 l -4.0625,-6.75 h -0.0937 l 0.0937,1.82813 v 4.92187 h -1.76562 z m 12.70691,9.76562 q -1,0 -1.8125,-0.46875 -0.8125,-0.46875 -1.28125,-1.28125 -0.45313,-0.82812 -0.45313,-1.85937 0,-0.96875 0.45313,-1.79688 0.45312,-0.84375 1.25,-1.32812 0.79687,-0.5 1.78125,-0.5 1.0625,0 1.8125,0.45312 0.76562,0.45313 1.15625,1.25 0.39062,0.78125 0.39062,1.73438 0,0.3125 -0.0312,0.59375 h -5.10937 q 0.125,0.8125 0.64062,1.23437 0.51563,0.42188 1.23438,0.42188 0.60937,0 1.03125,-0.26563 0.4375,-0.26562 0.6875,-0.70312 l 1.42187,0.70312 q -1.04687,1.8125 -3.17187,1.8125 z m 1.625,-4.4375 q -0.0312,-0.32812 -0.23438,-0.64062 -0.20312,-0.3125 -0.57812,-0.51563 -0.35938,-0.20312 -0.85938,-0.20312 -0.625,0 -1.07812,0.375 -0.4375,0.35937 -0.64063,0.98437 z m 5.77984,4.32813 q -0.5,0 -0.9375,-0.15625 -0.42187,-0.15625 -0.6875,-0.42188 -0.625,-0.59375 -0.625,-1.70312 v -3.125 h -1.1875 v -1.5 h 1.1875 v -1.92188 h 1.75 v 1.92188 h 1.65625 v 1.5 h -1.65625 v 2.79687 q 0,0.53125 0.21875,0.75 0.1875,0.21875 0.64063,0.21875 0.25,0 0.42187,-0.0625 0.17188,-0.0781 0.4375,-0.23437 v 1.70312 q -0.57812,0.23438 -1.21875,0.23438 z m 2.05237,-6.90625 h 1.95313 l 1.17187,4.40625 h 0.0937 l 1.35938,-4.40625 h 1.79687 l 1.35938,4.40625 h 0.0937 l 1.17187,-4.40625 h 1.92188 l -2.17188,6.79687 h -1.875 l -1.39062,-4.39062 h -0.0937 l -1.35938,4.39062 h -1.875 z m 14.98462,7.01562 q -1.0625,0 -1.89062,-0.46875 -0.8125,-0.48437 -1.28125,-1.29687 -0.45313,-0.82813 -0.45313,-1.85938 0,-1 0.45313,-1.82812 0.46875,-0.82813 1.28125,-1.29688 0.82812,-0.48437 1.89062,-0.48437 1.03125,0 1.85938,0.48437 0.82812,0.46875 1.28125,1.29688 0.46875,0.82812 0.46875,1.82812 0,1.03125 -0.46875,1.85938 -0.45313,0.8125 -1.28125,1.29687 -0.82813,0.46875 -1.85938,0.46875 z m 0,-1.625 q 0.5,0 0.92188,-0.23437 0.4375,-0.23438 0.6875,-0.6875 0.25,-0.45313 0.25,-1.07813 0,-0.59375 -0.25,-1.04687 -0.25,-0.45313 -0.6875,-0.6875 -0.42188,-0.25 -0.92188,-0.25 -0.51562,0 -0.9375,0.25 -0.42187,0.23437 -0.6875,0.6875 -0.26562,0.45312 -0.26562,1.04687 0,0.60938 0.26562,1.07813 0.26563,0.45312 0.6875,0.6875 0.42188,0.23437 0.9375,0.23437 z m 4.81342,-5.39062 h 1.64062 v 0.90625 h 0.0937 q 0.26563,-0.48438 0.79688,-0.79688 0.53125,-0.3125 1.17187,-0.3125 0.46875,0 0.84375,0.15625 v 1.73438 q -0.35937,-0.125 -0.60937,-0.1875 -0.23438,-0.0625 -0.51563,-0.0625 -0.78125,0 -1.23437,0.5625 -0.45313,0.5625 -0.45313,1.40625 v 3.39062 h -1.73437 z m 5.75775,-2.75 h 1.73437 v 5.20312 h 0.0937 l 2.4375,-2.45312 h 2.15625 v 0.10937 l -2.57812,2.51563 2.6875,4.0625 v 0.10937 h -2.0625 l -1.84375,-2.96875 -0.89063,0.85938 v 2.10937 h -1.73437 z m 6.591,9.54687 z m 4.21253,-9.54687 h 6.04687 v 1.70312 h -4.25 v 2.21875 h 3.82813 v 1.70313 h -3.82813 v 2.21875 h 4.25 v 1.70312 h -6.04687 z m 7.53582,2.75 h 1.64063 v 0.85937 h 0.0937 q 0.3125,-0.5 0.875,-0.78125 0.5625,-0.29687 1.20312,-0.29687 1.23438,0 1.875,0.75 0.64063,0.75 0.64063,2.04687 v 4.21875 h -1.75 v -4.01562 q 0,-0.65625 -0.34375,-1.01563 -0.32813,-0.35937 -0.92188,-0.35937 -0.70312,0 -1.14062,0.54687 -0.4375,0.54688 -0.4375,1.375 v 3.46875 h -1.73438 z m 10.88978,7.01562 q -0.90625,0 -1.67188,-0.45312 -0.75,-0.46875 -1.1875,-1.28125 -0.42187,-0.82813 -0.42187,-1.89063 0,-1.03125 0.42187,-1.85937 0.4375,-0.82813 1.1875,-1.28125 0.76563,-0.46875 1.67188,-0.46875 0.70312,0 1.23437,0.3125 0.53125,0.29687 0.8125,0.73437 h 0.10938 l -0.10938,-0.96875 v -2.60937 h 1.73438 v 9.54687 h -1.625 v -0.8125 h -0.10938 q -0.26562,0.4375 -0.8125,0.73438 -0.53125,0.29687 -1.23437,0.29687 z m 0.29687,-1.625 q 0.5,0 0.92188,-0.25 0.42187,-0.25 0.67187,-0.70312 0.26563,-0.45313 0.26563,-1.04688 0,-0.57812 -0.26563,-1.03125 -0.25,-0.45312 -0.67187,-0.70312 -0.42188,-0.25 -0.92188,-0.25 -0.48437,0 -0.90625,0.25 -0.42187,0.25 -0.6875,0.70312 -0.25,0.45313 -0.25,1.03125 0,0.59375 0.25,1.04688 0.26563,0.45312 0.6875,0.70312 0.42188,0.25 0.90625,0.25 z m 5.14441,-5.39062 h 1.64062 v 0.82812 h 0.10938 q 0.28125,-0.4375 0.8125,-0.73437 0.53125,-0.3125 1.21875,-0.3125 0.92187,0 1.67187,0.46875 0.76563,0.45312 1.1875,1.28125 0.42188,0.82812 0.42188,1.85937 0,1.0625 -0.42188,1.89063 -0.42187,0.8125 -1.1875,1.28125 -0.75,0.45312 -1.67187,0.45312 -0.6875,0 -1.23438,-0.29687 -0.53125,-0.29688 -0.79687,-0.73438 h -0.10938 l 0.10938,0.95313 v 2.73437 h -1.75 z m 3.48437,5.39062 q 0.48438,0 0.90625,-0.25 0.4375,-0.25 0.6875,-0.70312 0.25,-0.45313 0.25,-1.04688 0,-0.57812 -0.25,-1.03125 -0.25,-0.45312 -0.6875,-0.70312 -0.42187,-0.25 -0.90625,-0.25 -0.48437,0 -0.90625,0.25 -0.42187,0.25 -0.6875,0.70312 -0.25,0.45313 -0.25,1.03125 0,0.59375 0.25,1.04688 0.26563,0.45312 0.6875,0.70312 0.42188,0.25 0.90625,0.25 z m 8.18482,1.625 q -1.0625,0 -1.89063,-0.46875 -0.8125,-0.48437 -1.28125,-1.29687 -0.45312,-0.82813 -0.45312,-1.85938 0,-1 0.45312,-1.82812 0.46875,-0.82813 1.28125,-1.29688 0.82813,-0.48437 1.89063,-0.48437 1.03125,0 1.85937,0.48437 0.82813,0.46875 1.28125,1.29688 0.46875,0.82812 0.46875,1.82812 0,1.03125 -0.46875,1.85938 -0.45312,0.8125 -1.28125,1.29687 -0.82812,0.46875 -1.85937,0.46875 z m 0,-1.625 q 0.5,0 0.92187,-0.23437 0.4375,-0.23438 0.6875,-0.6875 0.25,-0.45313 0.25,-1.07813 0,-0.59375 -0.25,-1.04687 -0.25,-0.45313 -0.6875,-0.6875 -0.42187,-0.25 -0.92187,-0.25 -0.51563,0 -0.9375,0.25 -0.42188,0.23437 -0.6875,0.6875 -0.26563,0.45312 -0.26563,1.04687 0,0.60938 0.26563,1.07813 0.26562,0.45312 0.6875,0.6875 0.42187,0.23437 0.9375,0.23437 z m 5.79785,-6.14062 q -0.46875,0 -0.8125,-0.32813 -0.32813,-0.32812 -0.32813,-0.79687 0,-0.46875 0.32813,-0.79688 0.34375,-0.32812 0.8125,-0.32812 0.46875,0 0.78125,0.32812 0.32812,0.32813 0.32812,0.79688 0,0.46875 -0.32812,0.79687 -0.3125,0.32813 -0.78125,0.32813 z m -0.89063,0.75 h 1.75 v 6.79687 h -1.75 z m 3.57148,0 h 1.64062 v 0.85937 h 0.0937 q 0.3125,-0.5 0.875,-0.78125 0.5625,-0.29687 1.20313,-0.29687 1.23437,0 1.875,0.75 0.64062,0.75 0.64062,2.04687 v 4.21875 h -1.75 v -4.01562 q 0,-0.65625 -0.34375,-1.01563 -0.32812,-0.35937 -0.92187,-0.35937 -0.70313,0 -1.14063,0.54687 -0.4375,0.54688 -0.4375,1.375 v 3.46875 h -1.73437 z m 10.60327,6.90625 q -0.5,0 -0.9375,-0.15625 -0.42188,-0.15625 -0.6875,-0.42188 -0.625,-0.59375 -0.625,-1.70312 v -3.125 h -1.1875 v -1.5 h 1.1875 v -1.92188 h 1.75 v 1.92188 h 1.65625 v 1.5 h -1.65625 v 2.79687 q 0,0.53125 0.21875,0.75 0.1875,0.21875 0.64062,0.21875 0.25,0 0.42188,-0.0625 0.17187,-0.0781 0.4375,-0.23437 v 1.70312 q -0.57813,0.23438 -1.21875,0.23438 z m 1.75867,-0.10938 z"
       id="path61"
       inkscape:connector-curvature="0"
       style="fill:#666666;fill-rule:nonzero" />
    <path
       d="m 623.82526,240.23398 q -1.375,0 -2.53125,-0.64063 -1.15625,-0.65625 -1.84375,-1.79687 -0.67188,-1.14063 -0.67188,-2.54688 0,-1.42187 0.67188,-2.5625 0.6875,-1.14062 1.84375,-1.78125 1.15625,-0.64062 2.53125,-0.64062 1.10937,0 2.03125,0.39062 0.9375,0.39063 1.60937,1.10938 l -1.25,1.21875 q -0.46875,-0.51563 -1.0625,-0.76563 -0.57812,-0.25 -1.34375,-0.25 -0.875,0 -1.60937,0.40625 -0.73438,0.40625 -1.17188,1.15625 -0.4375,0.75 -0.4375,1.71875 0,0.95313 0.4375,1.70313 0.45313,0.75 1.1875,1.15625 0.73438,0.40625 1.625,0.40625 1.32813,0 2.17188,-0.78125 0.26562,-0.23438 0.46875,-0.60938 0.20312,-0.375 0.29687,-0.8125 h -3 v -1.53125 h 4.6875 q 0.0781,0.375 0.0781,0.84375 0,0.9375 -0.28125,1.75 -0.28125,0.8125 -0.875,1.42188 -0.64063,0.70312 -1.54688,1.07812 -0.90625,0.35938 -2.01562,0.35938 z m 5.9455,-7.01563 h 1.64062 v 0.90625 h 0.0937 q 0.26563,-0.48437 0.79688,-0.79687 0.53125,-0.3125 1.17187,-0.3125 0.46875,0 0.84375,0.15625 v 1.73437 q -0.35937,-0.125 -0.60937,-0.1875 -0.23438,-0.0625 -0.51563,-0.0625 -0.78125,0 -1.23437,0.5625 -0.45313,0.5625 -0.45313,1.40625 v 3.39063 h -1.73437 z m 8.54107,7.01563 q -1.0625,0 -1.89062,-0.46875 -0.8125,-0.48438 -1.28125,-1.29688 -0.45313,-0.82812 -0.45313,-1.85937 0,-1 0.45313,-1.82813 0.46875,-0.82812 1.28125,-1.29687 0.82812,-0.48438 1.89062,-0.48438 1.03125,0 1.85938,0.48438 0.82812,0.46875 1.28125,1.29687 0.46875,0.82813 0.46875,1.82813 0,1.03125 -0.46875,1.85937 -0.45313,0.8125 -1.28125,1.29688 -0.82813,0.46875 -1.85938,0.46875 z m 0,-1.625 q 0.5,0 0.92188,-0.23438 0.4375,-0.23437 0.6875,-0.6875 0.25,-0.45312 0.25,-1.07812 0,-0.59375 -0.25,-1.04688 -0.25,-0.45312 -0.6875,-0.6875 -0.42188,-0.25 -0.92188,-0.25 -0.51562,0 -0.9375,0.25 -0.42187,0.23438 -0.6875,0.6875 -0.26562,0.45313 -0.26562,1.04688 0,0.60937 0.26562,1.07812 0.26563,0.45313 0.6875,0.6875 0.42188,0.23438 0.9375,0.23438 z m 7.33319,1.625 q -1.23437,0 -1.875,-0.76563 -0.64062,-0.76562 -0.64062,-2.125 v -4.125 h 1.75 v 3.92188 q 0,0.6875 0.32812,1.07812 0.34375,0.39063 0.89063,0.39063 0.73437,0 1.17187,-0.54688 0.45313,-0.54687 0.45313,-1.375 v -3.46875 h 1.73437 v 6.79688 h -1.64062 v -0.85938 h -0.0937 q -0.3125,0.5 -0.875,0.79688 -0.54688,0.28125 -1.20313,0.28125 z m 5.4679,-7.01563 h 1.64062 v 0.82813 h 0.10938 q 0.28125,-0.4375 0.8125,-0.73438 0.53125,-0.3125 1.21875,-0.3125 0.92187,0 1.67187,0.46875 0.76563,0.45313 1.1875,1.28125 0.42188,0.82813 0.42188,1.85938 0,1.0625 -0.42188,1.89062 -0.42187,0.8125 -1.1875,1.28125 -0.75,0.45313 -1.67187,0.45313 -0.6875,0 -1.23438,-0.29688 -0.53125,-0.29687 -0.79687,-0.73437 h -0.10938 l 0.10938,0.95312 v 2.73438 h -1.75 z m 3.48437,5.39063 q 0.48438,0 0.90625,-0.25 0.4375,-0.25 0.6875,-0.70313 0.25,-0.45312 0.25,-1.04687 0,-0.57813 -0.25,-1.03125 -0.25,-0.45313 -0.6875,-0.70313 -0.42187,-0.25 -0.90625,-0.25 -0.48437,0 -0.90625,0.25 -0.42187,0.25 -0.6875,0.70313 -0.25,0.45312 -0.25,1.03125 0,0.59375 0.25,1.04687 0.26563,0.45313 0.6875,0.70313 0.42188,0.25 0.90625,0.25 z m 4.0755,1.40625 z m 6.3219,1.8125 q -0.95312,-1.04688 -1.65625,-2.67188 -0.6875,-1.625 -0.6875,-3.4375 0,-1.8125 0.6875,-3.42187 0.70313,-1.625 1.65625,-2.67188 l 1.3125,0.90625 q -1.92187,2.375 -1.92187,5.1875 0,2.8125 1.92187,5.20313 z m 2.67536,-11.35938 h 2.09375 l 3.84375,6.40625 h 0.0937 l -0.0937,-1.84375 v -4.5625 h 1.78125 v 9.54688 h -1.89063 l -4.0625,-6.75 h -0.0937 l 0.0937,1.82812 v 4.92188 h -1.76562 z m 9.90277,0 h 6.04687 v 1.70313 h -4.25 v 2.21875 h 3.82813 v 1.70312 h -3.82813 v 2.21875 h 4.25 v 1.70313 h -6.04687 z m 12.1994,9.76563 q -1.375,0 -2.53125,-0.64063 -1.15625,-0.65625 -1.84375,-1.79687 -0.67187,-1.14063 -0.67187,-2.54688 0,-1.42187 0.67187,-2.5625 0.6875,-1.14062 1.84375,-1.78125 1.15625,-0.64062 2.53125,-0.64062 1.10938,0 2.03125,0.39062 0.9375,0.39063 1.60938,1.10938 l -1.25,1.21875 q -0.46875,-0.51563 -1.0625,-0.76563 -0.57813,-0.25 -1.34375,-0.25 -0.875,0 -1.60938,0.40625 -0.73437,0.40625 -1.17187,1.15625 -0.4375,0.75 -0.4375,1.71875 0,0.95313 0.4375,1.70313 0.45312,0.75 1.1875,1.15625 0.73437,0.40625 1.625,0.40625 1.32812,0 2.17187,-0.78125 0.26563,-0.23438 0.46875,-0.60938 0.20313,-0.375 0.29688,-0.8125 h -3 v -1.53125 h 4.6875 q 0.0781,0.375 0.0781,0.84375 0,0.9375 -0.28125,1.75 -0.28125,0.8125 -0.875,1.42188 -0.64062,0.70312 -1.54687,1.07812 -0.90625,0.35938 -2.01563,0.35938 z m 5.61835,0.6875 q 1.92187,-2.39063 1.92187,-5.20313 0,-2.8125 -1.92187,-5.1875 l 1.32812,-0.90625 q 0.9375,1.04688 1.64063,2.67188 0.70312,1.60937 0.70312,3.42187 0,1.8125 -0.70312,3.4375 -0.70313,1.625 -1.64063,2.67188 z"
       id="path63"
       inkscape:connector-curvature="0"
       style="fill:#666666;fill-rule:nonzero" />
    <path
       d="m 583.1496,286.08398 h 151.77954 v 39.65353 H 583.1496 Z"
       id="path65"
       inkscape:connector-curvature="0"
       style="fill:#ffffff;fill-rule:evenodd" />
    <path
       d="m 583.1496,286.08398 h 151.77954 v 39.65353 H 583.1496 Z"
       id="path67"
       inkscape:connector-curvature="0"
       style="fill-rule:evenodd;stroke:#666666;stroke-width:2;stroke-linecap:butt;stroke-linejoin:round" />
    <path
       d="m 602.13617,301.16388 h 2.09375 l 3.84375,6.40625 h 0.0937 l -0.0937,-1.84375 v -4.5625 h 1.78125 v 9.54687 h -1.89063 l -4.0625,-6.75 h -0.0937 l 0.0937,1.82813 v 4.92187 h -1.76562 z m 12.70691,9.76562 q -1,0 -1.8125,-0.46875 -0.8125,-0.46875 -1.28125,-1.28125 -0.45313,-0.82812 -0.45313,-1.85937 0,-0.96875 0.45313,-1.79688 0.45312,-0.84375 1.25,-1.32812 0.79687,-0.5 1.78125,-0.5 1.0625,0 1.8125,0.45312 0.76562,0.45313 1.15625,1.25 0.39062,0.78125 0.39062,1.73438 0,0.3125 -0.0312,0.59375 h -5.10937 q 0.125,0.8125 0.64062,1.23437 0.51563,0.42188 1.23438,0.42188 0.60937,0 1.03125,-0.26563 0.4375,-0.26562 0.6875,-0.70312 l 1.42187,0.70312 q -1.04687,1.8125 -3.17187,1.8125 z m 1.625,-4.4375 q -0.0312,-0.32812 -0.23438,-0.64062 -0.20312,-0.3125 -0.57812,-0.51563 -0.35938,-0.20312 -0.85938,-0.20312 -0.625,0 -1.07812,0.375 -0.4375,0.35937 -0.64063,0.98437 z m 5.77984,4.32813 q -0.5,0 -0.9375,-0.15625 -0.42187,-0.15625 -0.6875,-0.42188 -0.625,-0.59375 -0.625,-1.70312 v -3.125 h -1.1875 v -1.5 h 1.1875 V 301.992 h 1.75 v 1.92188 h 1.65625 v 1.5 h -1.65625 v 2.79687 q 0,0.53125 0.21875,0.75 0.1875,0.21875 0.64063,0.21875 0.25,0 0.42187,-0.0625 0.17188,-0.0781 0.4375,-0.23437 v 1.70312 q -0.57812,0.23438 -1.21875,0.23438 z m 2.05237,-6.90625 h 1.95313 l 1.17187,4.40625 h 0.0937 l 1.35938,-4.40625 h 1.79687 l 1.35938,4.40625 h 0.0937 l 1.17187,-4.40625 h 1.92188 l -2.17188,6.79687 h -1.875 l -1.39062,-4.39062 h -0.0937 l -1.35938,4.39062 h -1.875 z m 14.98462,7.01562 q -1.0625,0 -1.89062,-0.46875 -0.8125,-0.48437 -1.28125,-1.29687 -0.45313,-0.82813 -0.45313,-1.85938 0,-1 0.45313,-1.82812 0.46875,-0.82813 1.28125,-1.29688 0.82812,-0.48437 1.89062,-0.48437 1.03125,0 1.85938,0.48437 0.82812,0.46875 1.28125,1.29688 0.46875,0.82812 0.46875,1.82812 0,1.03125 -0.46875,1.85938 -0.45313,0.8125 -1.28125,1.29687 -0.82813,0.46875 -1.85938,0.46875 z m 0,-1.625 q 0.5,0 0.92188,-0.23437 0.4375,-0.23438 0.6875,-0.6875 0.25,-0.45313 0.25,-1.07813 0,-0.59375 -0.25,-1.04687 -0.25,-0.45313 -0.6875,-0.6875 -0.42188,-0.25 -0.92188,-0.25 -0.51562,0 -0.9375,0.25 -0.42187,0.23437 -0.6875,0.6875 -0.26562,0.45312 -0.26562,1.04687 0,0.60938 0.26562,1.07813 0.26563,0.45312 0.6875,0.6875 0.42188,0.23437 0.9375,0.23437 z m 4.81342,-5.39062 h 1.64062 v 0.90625 h 0.0937 q 0.26563,-0.48438 0.79688,-0.79688 0.53125,-0.3125 1.17187,-0.3125 0.46875,0 0.84375,0.15625 v 1.73438 q -0.35937,-0.125 -0.60937,-0.1875 -0.23438,-0.0625 -0.51563,-0.0625 -0.78125,0 -1.23437,0.5625 -0.45313,0.5625 -0.45313,1.40625 v 3.39062 h -1.73437 z m 5.75775,-2.75 h 1.73437 v 5.20312 h 0.0937 l 2.4375,-2.45312 h 2.15625 v 0.10937 l -2.57812,2.51563 2.6875,4.0625 v 0.10937 h -2.0625 l -1.84375,-2.96875 -0.89063,0.85938 v 2.10937 h -1.73437 z m 6.591,9.54687 z m 4.21253,-9.54687 h 6.04687 v 1.70312 h -4.25 v 2.21875 h 3.82813 v 1.70313 h -3.82813 v 2.21875 h 4.25 v 1.70312 h -6.04687 z m 7.53582,2.75 h 1.64063 v 0.85937 h 0.0937 q 0.3125,-0.5 0.875,-0.78125 0.5625,-0.29687 1.20312,-0.29687 1.23438,0 1.875,0.75 0.64063,0.75 0.64063,2.04687 v 4.21875 h -1.75 v -4.01562 q 0,-0.65625 -0.34375,-1.01563 -0.32813,-0.35937 -0.92188,-0.35937 -0.70312,0 -1.14062,0.54687 -0.4375,0.54688 -0.4375,1.375 v 3.46875 h -1.73438 z m 10.88978,7.01562 q -0.90625,0 -1.67188,-0.45312 -0.75,-0.46875 -1.1875,-1.28125 -0.42187,-0.82813 -0.42187,-1.89063 0,-1.03125 0.42187,-1.85937 0.4375,-0.82813 1.1875,-1.28125 0.76563,-0.46875 1.67188,-0.46875 0.70312,0 1.23437,0.3125 0.53125,0.29687 0.8125,0.73437 h 0.10938 l -0.10938,-0.96875 v -2.60937 h 1.73438 v 9.54687 h -1.625 v -0.8125 h -0.10938 q -0.26562,0.4375 -0.8125,0.73438 -0.53125,0.29687 -1.23437,0.29687 z m 0.29687,-1.625 q 0.5,0 0.92188,-0.25 0.42187,-0.25 0.67187,-0.70312 0.26563,-0.45313 0.26563,-1.04688 0,-0.57812 -0.26563,-1.03125 -0.25,-0.45312 -0.67187,-0.70312 -0.42188,-0.25 -0.92188,-0.25 -0.48437,0 -0.90625,0.25 -0.42187,0.25 -0.6875,0.70312 -0.25,0.45313 -0.25,1.03125 0,0.59375 0.25,1.04688 0.26563,0.45312 0.6875,0.70312 0.42188,0.25 0.90625,0.25 z m 5.14441,-5.39062 h 1.64062 v 0.82812 h 0.10938 q 0.28125,-0.4375 0.8125,-0.73437 0.53125,-0.3125 1.21875,-0.3125 0.92187,0 1.67187,0.46875 0.76563,0.45312 1.1875,1.28125 0.42188,0.82812 0.42188,1.85937 0,1.0625 -0.42188,1.89063 -0.42187,0.8125 -1.1875,1.28125 -0.75,0.45312 -1.67187,0.45312 -0.6875,0 -1.23438,-0.29687 -0.53125,-0.29688 -0.79687,-0.73438 h -0.10938 l 0.10938,0.95313 v 2.73437 h -1.75 z m 3.48437,5.39062 q 0.48438,0 0.90625,-0.25 0.4375,-0.25 0.6875,-0.70312 0.25,-0.45313 0.25,-1.04688 0,-0.57812 -0.25,-1.03125 -0.25,-0.45312 -0.6875,-0.70312 -0.42187,-0.25 -0.90625,-0.25 -0.48437,0 -0.90625,0.25 -0.42187,0.25 -0.6875,0.70312 -0.25,0.45313 -0.25,1.03125 0,0.59375 0.25,1.04688 0.26563,0.45312 0.6875,0.70312 0.42188,0.25 0.90625,0.25 z m 8.18482,1.625 q -1.0625,0 -1.89063,-0.46875 -0.8125,-0.48437 -1.28125,-1.29687 -0.45312,-0.82813 -0.45312,-1.85938 0,-1 0.45312,-1.82812 0.46875,-0.82813 1.28125,-1.29688 0.82813,-0.48437 1.89063,-0.48437 1.03125,0 1.85937,0.48437 0.82813,0.46875 1.28125,1.29688 0.46875,0.82812 0.46875,1.82812 0,1.03125 -0.46875,1.85938 -0.45312,0.8125 -1.28125,1.29687 -0.82812,0.46875 -1.85937,0.46875 z m 0,-1.625 q 0.5,0 0.92187,-0.23437 0.4375,-0.23438 0.6875,-0.6875 0.25,-0.45313 0.25,-1.07813 0,-0.59375 -0.25,-1.04687 -0.25,-0.45313 -0.6875,-0.6875 -0.42187,-0.25 -0.92187,-0.25 -0.51563,0 -0.9375,0.25 -0.42188,0.23437 -0.6875,0.6875 -0.26563,0.45312 -0.26563,1.04687 0,0.60938 0.26563,1.07813 0.26562,0.45312 0.6875,0.6875 0.42187,0.23437 0.9375,0.23437 z m 5.79785,-6.14062 q -0.46875,0 -0.8125,-0.32813 -0.32813,-0.32812 -0.32813,-0.79687 0,-0.46875 0.32813,-0.79688 0.34375,-0.32812 0.8125,-0.32812 0.46875,0 0.78125,0.32812 0.32812,0.32813 0.32812,0.79688 0,0.46875 -0.32812,0.79687 -0.3125,0.32813 -0.78125,0.32813 z m -0.89063,0.75 h 1.75 v 6.79687 h -1.75 z m 3.57148,0 h 1.64062 v 0.85937 h 0.0937 q 0.3125,-0.5 0.875,-0.78125 0.5625,-0.29687 1.20313,-0.29687 1.23437,0 1.875,0.75 0.64062,0.75 0.64062,2.04687 v 4.21875 h -1.75 v -4.01562 q 0,-0.65625 -0.34375,-1.01563 -0.32812,-0.35937 -0.92187,-0.35937 -0.70313,0 -1.14063,0.54687 -0.4375,0.54688 -0.4375,1.375 v 3.46875 h -1.73437 z m 10.60327,6.90625 q -0.5,0 -0.9375,-0.15625 -0.42188,-0.15625 -0.6875,-0.42188 -0.625,-0.59375 -0.625,-1.70312 v -3.125 h -1.1875 v -1.5 h 1.1875 V 301.992 h 1.75 v 1.92188 h 1.65625 v 1.5 h -1.65625 v 2.79687 q 0,0.53125 0.21875,0.75 0.1875,0.21875 0.64062,0.21875 0.25,0 0.42188,-0.0625 0.17187,-0.0781 0.4375,-0.23437 v 1.70312 q -0.57813,0.23438 -1.21875,0.23438 z"
       id="path69"
       inkscape:connector-curvature="0"
       style="fill:#666666;fill-rule:nonzero" />
    <path
       d="m 93.83202,207.38846 h 151.77951 v 39.65353 H 93.83202 Z"
       id="path71"
       inkscape:connector-curvature="0"
       style="fill:#ffffff;fill-rule:evenodd" />
    <path
       d="m 93.83202,207.38846 h 151.77951 v 39.65353 H 93.83202 Z"
       id="path73"
       inkscape:connector-curvature="0"
       style="fill-rule:evenodd;stroke:#4285f4;stroke-width:2;stroke-linecap:butt;stroke-linejoin:round" />
    <path
       d="m 149.55338,232.23398 q -1.25,0 -2.21875,-0.70313 -0.95313,-0.71875 -1.34375,-2.01562 l 1.70312,-0.65625 q 0.20313,0.75 0.67188,1.20312 0.48437,0.45313 1.20312,0.45313 0.59375,0 1.01563,-0.29688 0.4375,-0.29687 0.4375,-0.82812 0,-0.53125 -0.40625,-0.875 -0.40625,-0.34375 -1.45313,-0.71875 l -0.57812,-0.21875 q -0.92188,-0.32813 -1.57813,-0.98438 -0.65625,-0.65625 -0.65625,-1.65625 0,-0.75 0.39063,-1.35937 0.39062,-0.60938 1.09375,-0.95313 0.70312,-0.35937 1.60937,-0.35937 1.28125,0 2.03125,0.60937 0.75,0.59375 1.03125,1.40625 l -1.59375,0.67188 q -0.14062,-0.4375 -0.51562,-0.73438 -0.35938,-0.3125 -0.9375,-0.3125 -0.57813,0 -0.96875,0.28125 -0.375,0.26563 -0.375,0.70313 0,0.4375 0.35937,0.73437 0.35938,0.29688 1.1875,0.57813 l 0.59375,0.20312 q 1.25,0.42188 1.90625,1.125 0.65625,0.70313 0.65625,1.82813 0,0.9375 -0.48437,1.59375 -0.46875,0.64062 -1.23438,0.96875 -0.75,0.3125 -1.54687,0.3125 z m 7.91273,0 q -1,0 -1.8125,-0.46875 -0.8125,-0.46875 -1.28125,-1.28125 -0.45312,-0.82813 -0.45312,-1.85938 0,-0.96875 0.45312,-1.79687 0.45313,-0.84375 1.25,-1.32813 0.79688,-0.5 1.78125,-0.5 1.0625,0 1.8125,0.45313 0.76563,0.45312 1.15625,1.25 0.39063,0.78125 0.39063,1.73437 0,0.3125 -0.0312,0.59375 h -5.10938 q 0.125,0.8125 0.64063,1.23438 0.51562,0.42187 1.23437,0.42187 0.60938,0 1.03125,-0.26562 0.4375,-0.26563 0.6875,-0.70313 l 1.42188,0.70313 q -1.04688,1.8125 -3.17188,1.8125 z m 1.625,-4.4375 q -0.0312,-0.32813 -0.23437,-0.64063 -0.20313,-0.3125 -0.57813,-0.51562 -0.35937,-0.20313 -0.85937,-0.20313 -0.625,0 -1.07813,0.375 -0.4375,0.35938 -0.64062,0.98438 z m 3.02671,-2.57813 h 1.64062 v 0.90625 h 0.0937 q 0.26563,-0.48437 0.79688,-0.79687 0.53125,-0.3125 1.17187,-0.3125 0.46875,0 0.84375,0.15625 v 1.73437 q -0.35937,-0.125 -0.60937,-0.1875 -0.23438,-0.0625 -0.51563,-0.0625 -0.78125,0 -1.23437,0.5625 -0.45313,0.5625 -0.45313,1.40625 v 3.39063 h -1.73437 z m 5.13879,0 h 1.98438 l 1.71875,4.42188 h 0.10937 l 1.75,-4.42188 h 1.95313 l -2.90625,6.79688 h -1.73438 z m 9.45363,-0.75 q -0.46875,0 -0.8125,-0.32812 -0.32812,-0.32813 -0.32812,-0.79688 0,-0.46875 0.32812,-0.79687 0.34375,-0.32813 0.8125,-0.32813 0.46875,0 0.78125,0.32813 0.32813,0.32812 0.32813,0.79687 0,0.46875 -0.32813,0.79688 -0.3125,0.32812 -0.78125,0.32812 z m -0.89062,0.75 h 1.75 v 6.79688 h -1.75 z m 6.6923,7.01563 q -1.01562,0 -1.82812,-0.45313 -0.8125,-0.46875 -1.28125,-1.29687 -0.45313,-0.82813 -0.45313,-1.875 0,-1.03125 0.45313,-1.84375 0.46875,-0.82813 1.28125,-1.29688 0.8125,-0.46875 1.82812,-0.46875 1.14063,0 1.95313,0.5 0.8125,0.48438 1.17187,1.375 l -1.59375,0.65625 q -0.4375,-0.90625 -1.53125,-0.90625 -0.79687,0 -1.3125,0.54688 -0.51562,0.54687 -0.51562,1.4375 0,0.90625 0.51562,1.45312 0.51563,0.54688 1.3125,0.54688 1.10938,0 1.60938,-0.95313 l 1.57812,0.6875 q -0.4375,0.90625 -1.25,1.40625 -0.8125,0.48438 -1.9375,0.48438 z m 7.55471,0 q -1,0 -1.8125,-0.46875 -0.8125,-0.46875 -1.28125,-1.28125 -0.45313,-0.82813 -0.45313,-1.85938 0,-0.96875 0.45313,-1.79687 0.45312,-0.84375 1.25,-1.32813 0.79687,-0.5 1.78125,-0.5 1.0625,0 1.8125,0.45313 0.76562,0.45312 1.15625,1.25 0.39062,0.78125 0.39062,1.73437 0,0.3125 -0.0312,0.59375 h -5.10937 q 0.125,0.8125 0.64062,1.23438 0.51563,0.42187 1.23438,0.42187 0.60937,0 1.03125,-0.26562 0.4375,-0.26563 0.6875,-0.70313 l 1.42187,0.70313 q -1.04687,1.8125 -3.17187,1.8125 z m 1.625,-4.4375 q -0.0312,-0.32813 -0.23438,-0.64063 -0.20312,-0.3125 -0.57812,-0.51562 -0.35938,-0.20313 -0.85938,-0.20313 -0.625,0 -1.07812,0.375 -0.4375,0.35938 -0.64063,0.98438 z"
       id="path75"
       inkscape:connector-curvature="0"
       style="fill:#4285f4;fill-rule:nonzero" />
    <path
       d="m 93.83202,286.08398 h 151.77951 v 39.65353 H 93.83202 Z"
       id="path77"
       inkscape:connector-curvature="0"
       style="fill:#ffffff;fill-rule:evenodd" />
    <path
       d="m 93.83202,286.08398 h 151.77951 v 39.65353 H 93.83202 Z"
       id="path79"
       inkscape:connector-curvature="0"
       style="fill-rule:evenodd;stroke:#4285f4;stroke-width:2;stroke-linecap:butt;stroke-linejoin:round" />
    <path
       d="m 158.6804,301.16388 h 3.35937 q 0.90625,0 1.64063,0.39062 0.75,0.375 1.17187,1.0625 0.4375,0.6875 0.4375,1.5625 0,0.875 -0.4375,1.57813 -0.42187,0.6875 -1.17187,1.07812 -0.73438,0.375 -1.64063,0.375 h -1.5625 v 3.5 h -1.79687 z m 3.40625,4.32812 q 0.67187,0 1.04687,-0.375 0.39063,-0.39062 0.39063,-0.9375 0,-0.54687 -0.39063,-0.92187 -0.375,-0.39063 -1.04687,-0.39063 h -1.60938 v 2.625 z m 7.27284,5.4375 q -1.0625,0 -1.89062,-0.46875 -0.8125,-0.48437 -1.28125,-1.29687 -0.45313,-0.82813 -0.45313,-1.85938 0,-1 0.45313,-1.82812 0.46875,-0.82813 1.28125,-1.29688 0.82812,-0.48437 1.89062,-0.48437 1.03125,0 1.85938,0.48437 0.82812,0.46875 1.28125,1.29688 0.46875,0.82812 0.46875,1.82812 0,1.03125 -0.46875,1.85938 -0.45313,0.8125 -1.28125,1.29687 -0.82813,0.46875 -1.85938,0.46875 z m 0,-1.625 q 0.5,0 0.92188,-0.23437 0.4375,-0.23438 0.6875,-0.6875 0.25,-0.45313 0.25,-1.07813 0,-0.59375 -0.25,-1.04687 -0.25,-0.45313 -0.6875,-0.6875 -0.42188,-0.25 -0.92188,-0.25 -0.51562,0 -0.9375,0.25 -0.42187,0.23437 -0.6875,0.6875 -0.26562,0.45312 -0.26562,1.04687 0,0.60938 0.26562,1.07813 0.26563,0.45312 0.6875,0.6875 0.42188,0.23437 0.9375,0.23437 z m 7.85301,1.625 q -0.90625,0 -1.67187,-0.45312 -0.75,-0.46875 -1.1875,-1.28125 -0.42188,-0.82813 -0.42188,-1.89063 0,-1.03125 0.42188,-1.85937 0.4375,-0.82813 1.1875,-1.28125 0.76562,-0.46875 1.67187,-0.46875 0.70313,0 1.23438,0.3125 0.53125,0.29687 0.8125,0.73437 h 0.10937 l -0.10937,-0.96875 v -2.60937 h 1.73437 v 9.54687 h -1.625 v -0.8125 h -0.10937 q -0.26563,0.4375 -0.8125,0.73438 -0.53125,0.29687 -1.23438,0.29687 z m 0.29688,-1.625 q 0.5,0 0.92187,-0.25 0.42188,-0.25 0.67188,-0.70312 0.26562,-0.45313 0.26562,-1.04688 0,-0.57812 -0.26562,-1.03125 -0.25,-0.45312 -0.67188,-0.70312 -0.42187,-0.25 -0.92187,-0.25 -0.48438,0 -0.90625,0.25 -0.42188,0.25 -0.6875,0.70312 -0.25,0.45313 -0.25,1.03125 0,0.59375 0.25,1.04688 0.26562,0.45312 0.6875,0.70312 0.42187,0.25 0.90625,0.25 z"
       id="path81"
       inkscape:connector-curvature="0"
       style="fill:#4285f4;fill-rule:nonzero" />
    <g
       id="g85"
       style="filter:url(#shadowFilter-g6bbcc2901a_0_44.1)">
      <use
         xlink:href="#g6bbcc2901a_0_44.1"
         transform="translate(2.5441443,1.5897574)"
         id="use83"
         x="0"
         y="0"
         width="100%"
         height="100%" />
    </g>
    <defs
       id="defs100">
      <filter
         id="shadowFilter-g6bbcc2901a_0_44.1"
         filterUnits="userSpaceOnUse">
        <feGaussianBlur
           in="SourceAlpha"
           stdDeviation="0.6666667"
           result="blur"
           id="feGaussianBlur87" />
        <feComponentTransfer
           in="blur"
           id="feComponentTransfer97"
           style="color-interpolation-filters:sRGB">
          <feFuncR
             type="linear"
             slope="0"
             intercept="0.0"
             id="feFuncR89" />
          <feFuncG
             type="linear"
             slope="0"
             intercept="0.0"
             id="feFuncG91" />
          <feFuncB
             type="linear"
             slope="0"
             intercept="0.0"
             id="feFuncB93" />
          <feFuncA
             type="linear"
             slope="0.4471"
             intercept="0"
             id="feFuncA95" />
        </feComponentTransfer>
      </filter>
    </defs>
    <g
       id="g6bbcc2901a_0_44.1">
      <path
         d="m 348.45786,244.01642 v 0 c 0,-0.46358 0.37582,-0.83939 0.83939,-0.83939 h 128.27402 c 0.22259,0 0.43609,0.0884 0.5935,0.24585 0.15744,0.15741 0.24585,0.37091 0.24585,0.59354 v 48.46298 c 0,0.46356 -0.37579,0.83939 -0.83935,0.83939 H 349.29725 c -0.46357,0 -0.83939,-0.37583 -0.83939,-0.83939 z"
         id="path102"
         inkscape:connector-curvature="0"
         style="fill:#ffffff;fill-rule:evenodd" />
      <path
         d="m 369.42154,263.6677 h 1.39062 l 4.78125,7.59375 h 0.0625 l -0.0625,-1.82812 v -5.76563 h 1.14063 v 9.54688 h -1.17188 l -5,-7.95313 h -0.0625 l 0.0625,1.82813 v 6.125 h -1.14062 z m 9.43628,0 h 5.51562 v 1.07813 h -4.375 v 3.17187 h 3.95313 v 1.0625 h -3.95313 v 3.15625 h 4.375 v 1.07813 h -5.51562 z m 11.56146,9.76563 q -1.34375,0 -2.48437,-0.65625 -1.125,-0.65625 -1.79688,-1.79688 -0.67187,-1.15625 -0.67187,-2.53125 0,-1.39062 0.67187,-2.53125 0.67188,-1.15625 1.79688,-1.79687 1.14062,-0.65625 2.48437,-0.65625 1.04688,0 1.96875,0.375 0.9375,0.35937 1.53125,1.04687 l -0.79687,0.8125 q -0.46875,-0.5625 -1.17188,-0.85937 -0.70312,-0.29688 -1.51562,-0.29688 -1,0 -1.89063,0.48438 -0.875,0.48437 -1.40625,1.375 -0.51562,0.875 -0.51562,2.04687 0,1.15625 0.51562,2.04688 0.53125,0.875 1.40625,1.375 0.89063,0.48437 1.89063,0.48437 0.95312,0 1.59375,-0.29687 0.65625,-0.3125 1.125,-0.79688 0.34375,-0.375 0.54687,-0.90625 0.21875,-0.53125 0.28125,-1.17187 h -3.53125 v -1.04688 h 4.57813 q 0.0625,0.375 0.0625,0.6875 0,0.89063 -0.28125,1.71875 -0.28125,0.82813 -0.89063,1.45313 -1.3125,1.4375 -3.5,1.4375 z m 5.28885,-0.21875 z m 8.37235,0.21875 q -1.39063,0 -2.53125,-0.65625 -1.125,-0.65625 -1.78125,-1.79688 -0.64063,-1.14062 -0.64063,-2.53125 0,-1.40625 0.64063,-2.54687 0.65625,-1.14063 1.78125,-1.78125 1.14062,-0.65625 2.53125,-0.65625 1.0625,0 1.95312,0.40625 0.89063,0.39062 1.53125,1.14062 l -0.8125,0.79688 q -0.54687,-0.65625 -1.1875,-0.95313 -0.64062,-0.3125 -1.48437,-0.3125 -1.04688,0 -1.92188,0.48438 -0.85937,0.48437 -1.375,1.375 -0.5,0.875 -0.5,2.04687 0,1.15625 0.5,2.04688 0.51563,0.875 1.375,1.375 0.875,0.48437 1.92188,0.48437 1.73437,0 2.9375,-1.4375 l 0.82812,0.79688 q -0.65625,0.79687 -1.64062,1.26562 -0.96875,0.45313 -2.125,0.45313 z m 8.03131,0 q -1,0 -1.79688,-0.48438 -0.79687,-0.48437 -1.25,-1.3125 -0.4375,-0.82812 -0.4375,-1.82812 0,-0.98438 0.4375,-1.8125 0.45313,-0.82813 1.25,-1.3125 0.79688,-0.48438 1.79688,-0.48438 1,0 1.79687,0.48438 0.8125,0.48437 1.25,1.3125 0.45313,0.82812 0.45313,1.8125 0,1 -0.45313,1.82812 -0.4375,0.82813 -1.25,1.3125 -0.79687,0.48438 -1.79687,0.48438 z m 0,-1.03125 q 0.625,0 1.15625,-0.3125 0.54687,-0.3125 0.875,-0.89063 0.32812,-0.59375 0.32812,-1.39062 0,-0.78125 -0.32812,-1.35938 -0.32813,-0.59375 -0.875,-0.90625 -0.53125,-0.3125 -1.15625,-0.3125 -0.625,0 -1.17188,0.3125 -0.54687,0.3125 -0.875,0.90625 -0.32812,0.57813 -0.32812,1.35938 0,0.79687 0.32812,1.39062 0.32813,0.57813 0.875,0.89063 0.54688,0.3125 1.17188,0.3125 z m 4.68518,-5.98438 h 1.07812 v 1 h 0.0469 q 0.28125,-0.5 0.89062,-0.85937 0.625,-0.35938 1.3125,-0.35938 1.21875,0 1.85938,0.71875 0.65625,0.71875 0.65625,1.9375 v 4.35938 h -1.125 v -4.1875 q 0,-0.9375 -0.45313,-1.35938 -0.45312,-0.4375 -1.25,-0.4375 -0.54687,0 -0.98437,0.3125 -0.42188,0.29688 -0.67188,0.79688 -0.23437,0.5 -0.23437,1.04687 v 3.82813 h -1.125 z m 9.75311,6.90625 q -0.42188,0 -0.78125,-0.125 -0.34375,-0.14062 -0.57813,-0.375 -0.53125,-0.5 -0.53125,-1.39062 v -3.98438 h -1.1875 v -1.03125 h 1.1875 v -1.92187 h 1.125 v 1.92187 h 1.67188 v 1.03125 h -1.67188 v 3.70313 q 0,0.5625 0.21875,0.82812 0.25,0.28125 0.73438,0.28125 0.40625,0 0.75,-0.21875 v 1.10938 q -0.20313,0.0937 -0.42188,0.125 -0.20312,0.0469 -0.51562,0.0469 z m 2.26871,-6.90625 h 1.07812 v 1.09375 h 0.0469 q 0.20312,-0.5625 0.76562,-0.92187 0.57813,-0.375 1.20313,-0.375 0.46875,0 0.8125,0.14062 v 1.21875 q -0.4375,-0.20312 -0.96875,-0.20312 -0.48438,0 -0.90625,0.28125 -0.40625,0.26562 -0.65625,0.75 -0.25,0.46875 -0.25,1.01562 v 3.79688 h -1.125 z m 7.72302,7.01563 q -1,0 -1.79688,-0.48438 -0.79687,-0.48437 -1.25,-1.3125 -0.4375,-0.82812 -0.4375,-1.82812 0,-0.98438 0.4375,-1.8125 0.45313,-0.82813 1.25,-1.3125 0.79688,-0.48438 1.79688,-0.48438 1,0 1.79687,0.48438 0.8125,0.48437 1.25,1.3125 0.45313,0.82812 0.45313,1.8125 0,1 -0.45313,1.82812 -0.4375,0.82813 -1.25,1.3125 -0.79687,0.48438 -1.79687,0.48438 z m 0,-1.03125 q 0.625,0 1.15625,-0.3125 0.54687,-0.3125 0.875,-0.89063 0.32812,-0.59375 0.32812,-1.39062 0,-0.78125 -0.32812,-1.35938 -0.32813,-0.59375 -0.875,-0.90625 -0.53125,-0.3125 -1.15625,-0.3125 -0.625,0 -1.17188,0.3125 -0.54687,0.3125 -0.875,0.90625 -0.32812,0.57813 -0.32812,1.35938 0,0.79687 0.32812,1.39062 0.32813,0.57813 0.875,0.89063 0.54688,0.3125 1.17188,0.3125 z m 4.75186,-8.73438 h 1.125 v 9.54688 h -1.125 z m 2.81223,0 h 1.125 v 9.54688 h -1.125 z m 5.7612,9.76563 q -0.96875,0 -1.75,-0.46875 -0.76563,-0.46875 -1.20313,-1.28125 -0.42187,-0.82813 -0.42187,-1.85938 0,-0.96875 0.40625,-1.79687 0.40625,-0.84375 1.15625,-1.32813 0.75,-0.5 1.71875,-0.5 1,0 1.73437,0.45313 0.73438,0.4375 1.125,1.23437 0.40625,0.78125 0.40625,1.79688 0,0.15625 -0.0312,0.34375 h -5.39062 q 0.0469,0.78125 0.375,1.3125 0.32812,0.53125 0.84375,0.79687 0.51562,0.26563 1.07812,0.26563 1.32813,0 2.01563,-1.23438 l 0.95312,0.46875 q -0.42187,0.8125 -1.1875,1.3125 -0.75,0.48438 -1.82812,0.48438 z m 1.96875,-4.34375 q -0.0312,-0.42188 -0.25,-0.84375 -0.20313,-0.42188 -0.65625,-0.71875 -0.45313,-0.29688 -1.15625,-0.29688 -0.79688,0 -1.35938,0.51563 -0.54687,0.51562 -0.73437,1.34375 z m 2.51931,-2.67188 h 1.07813 v 1.09375 h 0.0469 q 0.20313,-0.5625 0.76563,-0.92187 0.57812,-0.375 1.20312,-0.375 0.46875,0 0.8125,0.14062 v 1.21875 q -0.4375,-0.20312 -0.96875,-0.20312 -0.48437,0 -0.90625,0.28125 -0.40625,0.26562 -0.65625,0.75 -0.25,0.46875 -0.25,1.01562 v 3.79688 h -1.125 z"
         id="path104"
         inkscape:connector-curvature="0"
         style="fill:#212121;fill-rule:nonzero" />
    </g>
    <path
       d="M 659.03937,247.04199 V 286.0971"
       id="path107"
       inkscape:connector-curvature="0"
       style="fill:#000000;fill-opacity:0;fill-rule:evenodd" />
    <path
       d="M 659.03937,247.04199 V 286.0971"
       id="path109"
       inkscape:connector-curvature="0"
       style="fill-rule:evenodd;stroke:#000000;stroke-width:1;stroke-linecap:butt;stroke-linejoin:round;stroke-dasharray:1, 3" />
  </g>
</svg>
